# xmcd
#
# Track frame offsets:
#	182
#	10922
#	22797
#	35270
#	47545
#	59720
#	70980
#	81555
#	92462
#	104130
#	117947
#	128950
#	140317
#	151532
#	162685
#	173085
#	184180
#	195735
#	207287
#	218290
#
# Disc length: 3070 seconds
#
# Revision: 1
# Processed by: cddbd v1.5PL3 Copyright (c) Steve Scherf et al.
# Submitted via: CDex 1.50Beta5
#
DISCID=110bfc14
DTITLE=Various Artist - 80 Super Backtracks - CD 1-4
DYEAR=1900
DGENRE=Pop -> General Pop
TTITLE0=Brian Hyland/Itsy Bitsy Teeny Weenie Yellow Polka Dot Bikini
TTITLE1=Neil Sedaka/Calendar Girl
TTITLE2=The Highwaymen/Michael Row The Boat Ashore
TTITLE3=Dion/Runaround Sue
TTITLE4=The Tokens/The Lion Sleeps Tonight
TTITLE5=Gary US Bonds/Quarter To Three
TTITLE6=Ricky Nelson/Hello Mary Lou, Goodbye Heart
TTITLE7=Connie Francis/Vacation
TTITLE8=Helen Shapiro/Don´t Treat Me Like A Child
TTITLE9=The Kingston Trio/Where Have All The Flowers Gone
TTITLE10=Little Eva/The Locomotion
TTITLE11=Four Seasons/Sherry
TTITLE12=Little Peggy March/I Will Follow Him
TTITLE13=The Beach Boys/Surfin' USA
TTITLE14=Connie Francis/Pretty Little Baby
TTITLE15=Jan and Dean/Surf City
TTITLE16=Johnny Cymbal/Mr Bassman
TTITLE17=The Rooftop Singers/Walk Right In
TTITLE18=Louis Armstrong/Hello Dolly
TTITLE19=Peter and Gordon/A World Without Love
EXTD=submitted by crossfade!
EXTT0=
EXTT1=
EXTT2=
EXTT3=
EXTT4=
EXTT5=
EXTT6=
EXTT7=
EXTT8=
EXTT9=
EXTT10=
EXTT11=
EXTT12=
EXTT13=
EXTT14=
EXTT15=
EXTT16=
EXTT17=
EXTT18=
EXTT19=
PLAYORDER=
